<?xml version="1.0" standalone="no"?><!DOCTYPE svg PUBLIC "-//W3C//DTD SVG 1.1//EN" "http://www.w3.org/Graphics/SVG/1.1/DTD/svg11.dtd"><svg t="1567311790152" class="icon" viewBox="0 0 1024 1024" version="1.1" xmlns="http://www.w3.org/2000/svg" p-id="1672" xmlns:xlink="http://www.w3.org/1999/xlink" width="200" height="200"><defs><style type="text/css"></style></defs><path d="M287.691 374.896c4.497 14.464 16.583 24.921 31.544 27.291 2.108 0.334 4.209 0.498 6.292 0.497 12.697 0 24.627-6.082 32.14-16.706l34.266-48.453 59.339 0.758c15.114 0.185 28.827-8.069 35.704-21.564 6.877-13.497 5.522-29.422-3.538-41.562l-35.493-47.562 19.058-56.201c4.865-14.344 1.233-29.909-9.477-40.62-10.71-10.711-26.275-14.342-40.621-9.479l-56.202 19.058-47.561-35.493c-12.138-9.059-28.063-10.415-41.56-3.539-13.497 6.876-21.76 20.557-21.567 35.704l0.759 59.339-48.454 34.266c-12.366 8.746-18.577 23.473-16.207 38.433 2.37 14.96 12.827 27.047 27.291 31.543l56.67 17.616 17.617 56.674z m2.444-132.877a48.998 48.998 0 0 0 20.708-40.64l-0.302-23.592 18.91 14.112a48.998 48.998 0 0 0 45.047 7.134l22.345-7.578-7.578 22.345a49 49 0 0 0 7.135 45.048l14.111 18.909-23.592-0.301c-16.102-0.176-31.324 7.535-40.64 20.707l-13.623 19.264-7.003-22.53a49.001 49.001 0 0 0-32.251-32.252l-22.531-7.003 19.264-13.623zM809.619 326.59c-16.378-0.679-32.502-4.106-47.925-10.186-51.933-20.472-87.444-67.746-92.677-123.372a146.245 146.245 0 0 1-0.527-8.153v-3.948c0-0.985-0.051-1.958-0.144-2.919-0.599-16.025-13.765-28.843-29.94-28.86h-0.032c-16.553 0-29.981 13.411-29.999 29.969-0.002 2.217 0.045 4.444 0.115 6.673V705.09a30.065 30.065 0 0 0-0.274 6.162c1.237 21.345-2.149 42.348-10.065 62.427-14.428 36.602-42.246 65.394-78.33 81.072-36.083 15.678-76.113 16.366-112.714 1.938-75.557-29.786-112.796-115.489-83.011-191.047 26.838-68.079 100.603-106.417 171.572-89.188 16.101 3.912 32.323-5.972 36.232-22.073 3.909-16.101-5.974-32.322-22.074-36.232-48.212-11.706-99.177-5.61-143.504 17.167-44.754 22.996-79.574 61.466-98.045 108.322-41.918 106.336 10.489 226.95 116.825 268.87 24.633 9.71 50.367 14.556 76.072 14.555 28.047 0 56.061-5.77 82.559-17.283 50.782-22.065 89.933-62.586 110.238-114.097 8.867-22.49 13.676-45.833 14.39-69.611 0.082-0.906 0.131-1.821 0.131-2.748V325.351c20.111 20.288 44.301 36.269 71.2 46.873 21.667 8.542 44.358 13.357 67.442 14.314 0.424 0.018 0.845 0.026 1.265 0.026 15.996 0 29.284-12.627 29.953-28.758 0.684-16.554-12.179-30.53-28.733-31.216z" p-id="1673"></path></svg>