<?xml version="1.0" standalone="no"?><!DOCTYPE svg PUBLIC "-//W3C//DTD SVG 1.1//EN" "http://www.w3.org/Graphics/SVG/1.1/DTD/svg11.dtd"><svg t="1567309788301" class="icon" viewBox="0 0 1036 1024" version="1.1" xmlns="http://www.w3.org/2000/svg" p-id="1260" xmlns:xlink="http://www.w3.org/1999/xlink" width="202.34375" height="200"><defs><style type="text/css"></style></defs><path d="M12.9152 511.7696c0 282.4576 228.9792 511.424 511.424 511.424 282.4576 0 511.4368-228.9664 511.4368-511.424C1035.776 229.312 806.784 0.3456 524.3392 0.3456 241.8944 0.3456 12.928 229.312 12.928 511.7696z" fill="#68BEF8" p-id="1261"></path><path d="M697.4464 606.848s-12.352 33.7536-35.1232 64.0768c0 0 40.4992 13.7216 37.0688 49.536 0 0 1.3696 39.936-86.6048 37.184 0 0-61.9008-4.8-80.4352-31.0016h-16.3584c-18.5344 26.2016-80.4352 31.0016-80.4352 31.0016-87.9872 2.752-86.6176-37.184-86.6176-37.184-3.4304-35.8144 37.0816-49.536 37.0816-49.536-22.656-30.336-35.0208-64.0768-35.0208-64.0768-55.04 88.896-49.536-12.352-49.536-12.352 10.2912-59.9552 53.6576-99.2 53.6576-99.2-6.1824-54.464 16.4736-64.0768 16.4736-64.0768 4.8128-168.4096 149.4272-165.44 152.512-165.3248 3.0976-0.1152 147.712-2.9696 152.512 165.3248 0 0 22.656 9.6128 16.4864 64.0768 0 0 43.2384 39.2448 53.6576 99.2 0.1152-0.128 5.6064 101.1328-49.3184 12.352z" fill="#FFFFFF" p-id="1262"></path></svg>