<?xml version="1.0" standalone="no"?><!DOCTYPE svg PUBLIC "-//W3C//DTD SVG 1.1//EN" "http://www.w3.org/Graphics/SVG/1.1/DTD/svg11.dtd"><svg t="1567309773360" class="icon" viewBox="0 0 1036 1024" version="1.1" xmlns="http://www.w3.org/2000/svg" p-id="1021" xmlns:xlink="http://www.w3.org/1999/xlink" width="202.34375" height="200"><defs><style type="text/css"></style></defs><path d="M461.504 482.2144c-96.8192 4.6464-175.0144 56.7808-175.0144 121.9456 0 65.152 78.1952 114.496 175.0144 109.8496 96.8064-4.6592 175.0016-66.0992 175.0016-131.264-0.9216-64.2304-79.1296-105.1904-175.0016-100.5312z m65.152 164.7616c-29.7856 39.104-88.4352 57.728-145.216 26.0736-27.008-14.8992-26.0608-43.7504-26.0608-43.7504s-11.1744-92.16 85.632-103.3344c97.7536-12.1088 115.4432 81.92 85.6448 121.0112z" fill="#EA5D5C" p-id="1022"></path><path d="M461.504 584.6144a13.6576 13.6576 0 0 0-3.7248 18.6112c2.7904 5.5936 11.1616 6.528 16.7552 1.8688 5.5808-4.6592 8.3712-13.0304 4.6464-18.624-2.7904-5.5808-10.24-6.5152-17.6768-1.856zM415.872 597.632a34.048 34.048 0 0 0-30.72 33.5104c0 14.8992 14.8992 26.0608 32.576 24.2048 17.6896-1.856 32.5888-15.8208 32.5888-31.6544 0-15.8208-13.9648-27.9296-34.4448-26.0608z" fill="#EA5D5C" p-id="1023"></path><path d="M524.8 0C241.792 0 12.8 228.992 12.8 512s228.992 512 512 512 512-228.992 512-512S807.808 0 524.8 0z m197.3504 626.496c-40.0256 85.6448-171.2896 127.5392-268.096 120.0896-92.16-7.4496-211.328-38.1696-223.424-151.7312 0 0-6.5152-51.2 42.8288-117.2992 0 0 70.7456-99.6096 152.6656-128.4608 82.8544-27.9296 92.16 19.5456 92.16 48.4096-4.6592 24.192-12.1088 38.1568 18.6112 28.8512 0 0 80.9984-38.1696 114.5088-4.6592 26.9952 27.008 4.6592 65.1648 4.6592 65.1648s-11.1744 12.1088 12.096 16.768c21.4144 3.712 94.016 37.2352 53.9904 122.88z m-80.0512-236.4416c-8.384 0-15.8336-7.4496-15.8336-15.8336 0-9.3056 7.4496-15.8208 15.8336-15.8208 0 0 99.5968-18.624 87.5008 89.3696v1.856a16.0896 16.0896 0 0 1-15.8208 13.9648 15.6928 15.6928 0 0 1-15.8336-15.8208c0-1.8688 15.8336-73.5488-55.8464-57.728z m168.4864 103.3216c-2.7904 18.624-12.096 11.1744-22.336 11.1744-13.0304 0-23.2704-16.7552-23.2704-29.7856 0-11.1744 4.6464-22.3488 4.6464-22.3488 0.9344-4.6464 12.1088-34.432-7.4496-78.1952-35.3664-60.5056-106.112-60.5056-114.496-57.7152-8.384 3.7248-21.4144 5.5936-21.4144 5.5936a23.04 23.04 0 0 1-23.2704-23.2832c0-11.1616 7.4496-19.5456 16.768-22.336 0 0 0 0.9344 0.9216 0.9344 0.9344 0 1.856 0.9216 1.856 0.9216 10.24-1.856 45.6192-4.6464 79.1296 3.7248 62.3744 14.8992 146.1504 83.7888 108.928 211.328z" fill="#EA5D5C" p-id="1024"></path></svg>