<?xml version="1.0" standalone="no"?><!DOCTYPE svg PUBLIC "-//W3C//DTD SVG 1.1//EN" "http://www.w3.org/Graphics/SVG/1.1/DTD/svg11.dtd"><svg t="1567309756580" class="icon" viewBox="0 0 1036 1024" version="1.1" xmlns="http://www.w3.org/2000/svg" p-id="901" xmlns:xlink="http://www.w3.org/1999/xlink" width="202.34375" height="200"><defs><style type="text/css"></style></defs><path d="M524.8 0C241.9456 0 12.8 229.1456 12.8 512s229.1456 512 512 512 512-229.1456 512-512C1035.008 229.1456 805.8624 0 524.8 0z m0 993.5616C258.048 993.5616 41.4464 776.96 41.4464 510.208 41.4464 243.4688 258.048 26.8544 524.8 26.8544c266.752 0 483.3536 216.6144 483.3536 483.3536C1006.3616 776.96 789.76 993.5616 524.8 993.5616z" fill="#86C610" p-id="902"></path><path d="M587.456 510.208c-10.752 0-21.4784 10.752-21.4784 21.4784 0 10.752 10.7392 21.4912 21.4784 21.4912 16.1152 0 26.8544-10.752 26.8544-21.4912 0-8.9472-10.752-21.4784-26.8544-21.4784zM360.1024 350.8864c-16.1152 0-34.0096 10.7392-34.0096 26.8416 0 16.128 16.1024 26.8544 34.0096 26.8544 16.1152 0 26.8544-10.7392 26.8544-26.8544 1.792-16.1024-8.96-26.8416-26.8544-26.8416zM515.84 406.3744c16.1024 0 26.8544-10.7392 26.8544-26.8544 0-16.1024-10.752-26.8544-26.8544-26.8544-16.1152 0-34.0224 10.752-34.0224 26.8544 0 14.336 17.9072 26.8544 34.0224 26.8544z m193.344 103.8336c-10.752 0-21.4912 10.752-21.4912 21.4784 0 10.752 10.752 21.4912 21.4912 21.4912 16.1024 0 26.8416-10.752 26.8416-21.4912 0-8.9472-10.7392-21.4784-26.8416-21.4784z" fill="#86C610" p-id="903"></path><path d="M523.008 25.0624C254.4768 25.0624 36.0704 243.4688 36.0704 512c0 268.5312 218.4064 486.9376 486.9376 486.9376 268.544 0 486.9376-218.4064 486.9376-486.9376 0-268.5312-218.4064-486.9376-486.9376-486.9376zM433.4976 633.728c-26.8544 0-50.1248-5.376-76.9792-10.7392l-76.9792 39.3856 21.4784-66.24c-55.488-39.3728-87.7184-89.5104-87.7184-148.5824 0-105.6256 100.2624-187.968 221.9904-187.968 109.1968 0 204.0832 66.24 223.7824 155.7504-7.168 0-14.336-1.792-21.4912-1.792-105.6256 0-187.968 78.7712-187.968 175.4368 0 16.1152 1.792 32.2176 7.168 46.5408-10.752-3.584-17.92-1.792-23.2832-1.792z m325.824 76.9792l16.1024 55.5008-60.864-34.0096c-21.4784 5.376-44.7488 10.7392-66.24 10.7392-105.6128 0-187.968-71.6032-187.968-161.1136 0-87.7312 82.3552-161.1264 187.968-161.1264 100.2624 0 187.9808 71.616 187.9808 161.1264 0 51.904-32.2304 94.8736-76.9792 128.896z" fill="#86C610" p-id="904"></path></svg>